<?xml version="1.0" standalone="no"?>
<!DOCTYPE svg PUBLIC "-//W3C//DTD SVG 20010904//EN"
 "http://www.w3.org/TR/2001/REC-SVG-20010904/DTD/svg10.dtd">
<svg version="1.0" xmlns="http://www.w3.org/2000/svg"
 width="1031.000000pt" height="1040.000000pt" viewBox="0 0 1031.000000 1040.000000"
 preserveAspectRatio="xMidYMid meet">

<g transform="translate(0.000000,1040.000000) scale(0.100000,-0.100000)"
fill="#000000" stroke="none">
<path d="M5405 10365 c22 -19 38 -35 35 -35 -3 0 -39 6 -80 14 -77 15 -171 19
-320 16 l-85 -2 35 -15 c19 -8 46 -20 60 -26 23 -9 23 -11 5 -15 -11 -2 -109
-33 -219 -69 -340 -112 -553 -234 -769 -443 -269 -258 -425 -544 -508 -930
-21 -99 -23 -133 -27 -565 l-4 -460 -46 -30 c-26 -16 -61 -49 -79 -73 -59 -77
-63 -110 -63 -468 0 -301 1 -327 20 -378 27 -71 88 -139 154 -171 51 -25 54
-29 61 -71 10 -67 46 -166 111 -303 l58 -123 -31 -372 c-29 -366 -30 -374 -59
-426 -64 -117 -158 -189 -228 -174 -17 3 -64 24 -104 45 -109 58 -168 72 -276
67 -111 -5 -170 -29 -366 -145 -243 -145 -229 -142 -430 -84 -74 21 -164 42
-200 45 -454 46 -704 -551 -841 -2009 -28 -298 -23 -689 11 -909 148 -965 739
-1610 1792 -1955 953 -311 2304 -379 4118 -206 532 51 854 111 1192 221 1177
384 1666 1256 1403 2503 -103 487 -349 1048 -554 1265 -70 72 -88 82 -205 105
-116 24 -185 59 -366 186 -172 120 -255 157 -370 163 -56 2 -107 -1 -150 -11
-62 -15 -67 -15 -108 5 -28 13 -68 50 -116 106 -137 162 -207 212 -294 212
-27 0 -65 -6 -83 -14 -42 -17 -59 -11 -129 50 -123 106 -290 191 -454 231
l-75 18 -5 50 c-6 58 -27 721 -28 875 0 119 10 160 90 360 27 69 60 157 71
195 21 70 22 71 70 88 66 23 134 86 168 155 l28 57 0 355 c0 342 -1 357 -21
401 -27 58 -82 119 -128 144 l-36 20 0 200 c0 178 3 211 24 295 45 180 60 287
60 450 1 180 -15 267 -68 373 l-34 67 27 0 c14 0 37 7 50 16 l23 16 -39 18
c-51 23 -91 72 -154 191 -63 121 -135 196 -230 242 -68 32 -84 47 -51 47 29 0
116 56 157 102 l40 43 -125 6 c-123 6 -252 22 -308 38 -15 5 -67 39 -114 77
-212 171 -505 306 -775 357 -43 9 -94 18 -113 21 l-35 6 40 -35z m177 -483
c25 -41 120 -131 185 -175 32 -21 99 -58 148 -82 91 -44 294 -119 302 -111 3
2 -3 18 -11 35 -20 38 -21 71 -1 71 8 0 58 -30 112 -67 54 -37 148 -97 208
-134 102 -61 113 -71 147 -130 50 -86 114 -250 144 -366 32 -125 44 -237 44
-402 l0 -133 -22 6 c-116 32 -439 76 -558 76 -42 0 -75 8 -123 30 -193 87
-397 94 -427 14 -8 -20 -7 -32 5 -50 8 -13 15 -25 15 -28 0 -2 -87 -26 -192
-52 -242 -61 -321 -64 -500 -20 -116 28 -136 39 -100 50 11 4 29 17 41 30 32
34 25 74 -18 103 -66 45 -245 22 -401 -51 -53 -25 -61 -26 -257 -26 -226 0
-472 -27 -605 -66 -17 -5 -18 6 -18 143 0 183 22 319 82 502 18 57 32 75 117
161 93 93 205 180 284 221 38 20 38 20 28 0 -11 -20 -26 -129 -16 -120 2 3 17
28 32 57 41 75 111 152 203 221 45 34 85 61 90 61 5 0 -2 -21 -16 -48 -29 -56
-39 -128 -30 -206 9 -65 19 -65 35 0 16 64 72 171 116 222 40 46 127 102 159
102 17 0 16 -4 -11 -32 -45 -48 -74 -112 -80 -177 l-4 -56 33 40 c141 171 290
281 473 351 93 35 225 62 305 63 61 1 67 -1 82 -27z m-1022 -1552 c476 -36
575 -140 437 -459 -124 -286 -343 -429 -622 -407 -218 17 -367 108 -446 273
-55 115 -86 356 -59 455 14 50 59 92 112 107 58 16 264 38 363 40 44 0 141 -4
215 -9z m1770 0 c173 -11 260 -28 292 -56 61 -55 75 -197 38 -380 -44 -216
-144 -335 -332 -398 -228 -77 -475 -24 -627 132 -142 147 -244 393 -211 512
35 129 189 176 655 198 17 1 100 -3 185 -8z m-992 -246 c20 -24 39 -70 61
-147 87 -310 243 -486 491 -553 97 -26 347 -24 451 4 261 70 387 226 434 532
19 130 34 173 64 190 21 11 21 9 21 -107 0 -65 5 -217 11 -338 29 -586 -4
-851 -146 -1191 -76 -180 -105 -308 -119 -519 -4 -49 -12 -123 -18 -164 l-11
-73 -22 59 c-30 83 -55 115 -138 172 -41 28 -84 68 -99 91 -50 79 -48 170 5
241 60 78 67 93 67 139 0 93 -89 196 -207 240 -30 11 -94 24 -142 29 -102 11
-148 28 -259 95 l-83 51 39 5 c77 11 126 68 120 138 l-3 37 -21 -45 c-27 -57
-51 -79 -115 -100 -45 -16 -54 -16 -92 -3 -62 22 -151 13 -221 -21 l-58 -28
-67 31 c-52 24 -82 31 -128 31 -65 0 -111 -19 -287 -123 -80 -47 -118 -58
-257 -75 -133 -16 -245 -92 -289 -195 -30 -69 -23 -115 25 -168 48 -53 65 -96
65 -161 0 -89 -61 -178 -146 -214 -46 -19 -108 -95 -127 -155 -21 -63 -22
-143 -2 -198 8 -22 12 -41 10 -41 -10 0 -93 178 -113 240 -12 36 -33 119 -48
185 -42 192 -68 271 -144 433 -39 85 -77 181 -85 215 -36 164 -55 526 -55
1077 1 353 2 403 15 386 15 -20 26 -68 50 -212 31 -190 99 -311 225 -394 207
-139 570 -158 794 -43 93 48 208 162 258 258 l37 70 1 -85 c0 -47 5 -92 10
-100 7 -11 10 -8 10 16 0 25 58 374 75 450 9 41 51 74 94 74 33 0 44 -6 69
-36z m-35 -1509 l49 -25 41 24 c56 32 120 41 178 23 25 -8 99 -45 165 -83 161
-95 209 -113 317 -125 51 -6 96 -14 100 -19 5 -4 -8 -20 -28 -35 -37 -29 -65
-72 -65 -100 0 -9 22 -37 48 -63 l49 -47 9 -120 c5 -66 9 -194 9 -285 0 -152
-2 -169 -24 -218 -65 -144 -177 -160 -393 -53 -68 33 -156 71 -195 83 -84 26
-83 23 -56 136 13 57 15 80 6 103 l-11 29 71 1 c40 0 90 3 112 8 34 6 24 8
-61 14 -132 9 -194 18 -194 28 0 4 8 10 18 12 9 3 -35 5 -98 5 -63 0 -106 -3
-96 -7 11 -4 15 -10 10 -14 -19 -11 -228 -29 -279 -24 -40 4 -45 4 -25 -5 14
-5 70 -12 125 -15 l100 -6 -4 -44 c-1 -24 5 -75 14 -114 10 -40 14 -74 9 -79
-5 -4 -34 -15 -64 -25 -30 -9 -118 -47 -195 -83 -120 -57 -150 -67 -206 -70
-140 -8 -209 74 -225 268 -5 52 0 152 12 283 20 216 17 207 82 259 38 30 30
76 -23 128 -24 24 -42 47 -39 51 2 4 35 10 72 14 108 10 189 39 322 117 202
116 257 128 363 73z m-1352 -1035 c154 -295 469 -586 769 -710 439 -182 927
-169 1305 35 210 114 447 330 567 516 24 37 46 68 49 68 12 2 20 -513 9 -614
-53 -510 -288 -875 -695 -1078 -337 -168 -839 -201 -1210 -81 -167 55 -361
172 -484 293 -231 225 -364 519 -416 916 -24 186 -21 294 26 820 0 6 7 -7 14
-28 8 -21 38 -83 66 -137z m-691 -399 c153 -75 247 -78 353 -11 l44 28 6 -124
c33 -651 324 -1167 796 -1412 334 -174 759 -225 1173 -142 461 94 818 359
1016 756 91 181 141 366 163 604 7 69 13 126 15 128 1 2 51 -13 111 -33 127
-42 210 -89 319 -180 95 -79 156 -102 225 -85 102 26 94 29 172 -52 40 -41
101 -104 136 -141 104 -111 179 -138 308 -111 155 32 228 8 438 -142 158 -113
274 -170 389 -191 100 -18 118 -31 199 -145 205 -288 406 -833 483 -1305 25
-153 30 -520 10 -666 -107 -766 -625 -1268 -1560 -1512 -285 -75 -511 -109
-1001 -154 -701 -65 -1112 -85 -1695 -85 -843 1 -1435 60 -1992 200 -312 78
-507 148 -773 279 -752 370 -1162 968 -1236 1804 -44 497 85 1580 247 2077 51
157 133 320 193 386 102 112 185 123 421 58 190 -52 248 -53 348 -5 39 19 131
69 204 112 116 69 166 94 228 117 8 3 47 4 85 2 61 -2 84 -10 175 -55z"/>
<path d="M4600 9004 c-69 -15 -217 -71 -226 -85 -7 -11 -13 -12 94 11 182 40
403 36 569 -10 76 -21 70 -10 -20 36 -115 59 -279 78 -417 48z"/>
<path d="M4421 8134 c-60 -16 -170 -72 -216 -109 -23 -19 -11 -16 50 15 104
52 206 74 306 66 91 -6 208 -42 281 -85 l53 -32 -38 34 c-115 105 -293 150
-436 111z"/>
<path d="M4366 7939 c-77 -11 -165 -34 -207 -53 -33 -15 -29 -16 82 -12 l116
3 12 -33 c14 -38 73 -94 101 -94 31 0 33 -18 3 -35 l-28 -16 35 7 c90 16 179
79 227 161 21 36 30 43 56 43 58 0 14 18 -72 29 -96 13 -239 13 -325 0z"/>
<path d="M5936 8139 c-61 -14 -157 -65 -206 -110 l-45 -40 50 30 c28 16 86 42
130 57 67 23 97 27 185 28 89 0 117 -4 184 -27 43 -16 100 -39 125 -54 l46
-26 -30 26 c-45 39 -154 94 -221 112 -64 16 -157 18 -218 4z"/>
<path d="M5865 7939 c-79 -12 -110 -29 -52 -29 32 0 39 -4 56 -37 41 -80 141
-154 227 -168 l39 -6 -28 16 c-30 17 -28 35 3 35 28 0 87 56 99 93 l11 32 117
-2 c114 -2 117 -2 83 14 -84 37 -184 55 -335 58 -82 2 -181 -1 -220 -6z"/>
<path d="M5347 7824 c-4 -4 -7 -18 -7 -31 0 -26 27 -32 37 -7 6 17 -19 49 -30
38z"/>
<path d="M5086 7479 c-44 -34 -76 -110 -76 -176 1 -32 7 -69 15 -83 14 -24 14
-24 15 20 0 59 23 148 55 210 14 28 24 50 22 50 -3 0 -16 -9 -31 -21z"/>
<path d="M4665 7290 c-8 -13 20 -24 40 -16 8 3 15 10 15 16 0 13 -47 13 -55 0z"/>
<path d="M4934 7230 c-36 -14 -90 -77 -102 -119 -17 -56 -15 -147 5 -188 23
-49 66 -73 128 -72 l50 0 -47 13 c-82 22 -108 61 -108 158 0 77 26 137 77 184
37 34 36 40 -3 24z"/>
<path d="M4950 6945 c-32 -39 25 -65 92 -42 l43 15 -59 -6 c-48 -4 -58 -2 -54
9 5 15 95 19 158 7 l35 -7 -40 19 c-50 24 -157 27 -175 5z"/>
<path d="M5535 6940 l-40 -19 35 7 c53 10 145 8 145 -3 0 -5 -22 -9 -50 -9
l-50 1 43 -14 c67 -23 124 3 92 42 -18 22 -125 19 -175 -5z"/>
<path d="M4670 6322 c14 -10 34 -28 45 -41 73 -86 93 -103 147 -131 71 -35 96
-36 374 -19 136 8 207 8 308 -2 72 -7 148 -12 170 -12 65 2 175 64 263 149 43
42 69 73 58 69 -124 -40 -241 -45 -410 -16 -138 24 -463 22 -588 -3 -108 -22
-236 -21 -322 3 -61 17 -67 17 -45 3z"/>
<path d="M6332 4621 c-19 -11 -11 -55 10 -59 22 -4 35 36 17 54 -9 8 -19 10
-27 5z"/>
<path d="M4056 4564 c-8 -21 1 -34 24 -34 10 0 21 4 24 9 10 16 -5 41 -24 41
-10 0 -21 -7 -24 -16z"/>
<path d="M5865 3830 c-3 -5 1 -10 10 -10 9 0 13 5 10 10 -3 6 -8 10 -10 10 -2
0 -7 -4 -10 -10z"/>
<path d="M7994 9915 c-8 -19 48 -176 64 -182 8 -3 20 1 28 9 13 13 11 25 -17
101 -24 69 -35 87 -50 87 -11 0 -22 -7 -25 -15z"/>
<path d="M8463 9902 c-17 -11 -84 -153 -81 -170 2 -10 12 -17 23 -17 15 0 30
19 57 70 21 39 38 80 38 91 0 23 -20 37 -37 26z"/>
<path d="M8095 9664 c-92 -33 -188 -137 -215 -234 -16 -57 -12 -146 10 -209
l21 -59 -67 -134 c-80 -157 -87 -207 -43 -274 53 -80 180 -120 257 -80 43 22
70 62 137 203 55 116 59 121 93 128 96 18 190 93 238 191 25 51 29 70 29 144
0 74 -4 93 -29 144 -37 76 -92 130 -169 167 -53 25 -73 29 -142 28 -44 0 -98
-7 -120 -15z m197 -54 c69 -19 130 -71 166 -141 31 -59 34 -70 30 -139 -7
-143 -83 -233 -223 -265 -48 -11 -51 -13 -87 -81 -21 -38 -39 -73 -40 -77 -2
-5 -49 14 -105 41 -57 28 -108 52 -115 55 -9 3 -2 27 26 85 l39 80 -22 51
c-31 73 -36 128 -17 193 44 153 197 240 348 198z"/>
<path d="M7650 9607 c0 -19 14 -30 79 -61 80 -40 111 -42 111 -9 0 13 -23 30
-75 56 -89 44 -115 47 -115 14z"/>
<path d="M8680 9532 c-50 -18 -76 -33 -78 -45 -6 -29 26 -31 106 -6 81 25 104
41 96 64 -8 21 -38 18 -124 -13z"/>
<path d="M7693 9194 c-57 -20 -73 -30 -73 -45 0 -32 26 -33 113 -3 66 23 82
33 82 49 0 29 -37 29 -122 -1z"/>
<path d="M8587 9163 c-18 -18 0 -36 73 -73 88 -44 105 -48 114 -24 9 24 1 31
-74 69 -68 34 -100 42 -113 28z"/>
<path d="M8334 8935 c-7 -18 6 -71 36 -140 14 -32 25 -45 40 -45 28 0 26 38
-9 125 -27 70 -54 94 -67 60z"/>
<path d="M1795 7694 c-292 -47 -525 -260 -591 -539 -24 -104 -16 -276 19 -376
72 -210 230 -371 436 -442 112 -39 260 -48 376 -22 380 84 620 474 525 851
-61 244 -260 447 -497 508 -64 17 -216 28 -268 20z m25 -144 c17 -19 38 -30
55 -30 32 0 81 24 88 44 13 34 180 -29 282 -107 99 -75 180 -198 207 -319 11
-46 10 -50 -15 -76 -37 -39 -37 -94 0 -128 26 -24 26 -25 14 -79 -42 -187
-194 -347 -391 -412 l-83 -27 -16 21 c-42 52 -96 56 -141 12 l-31 -32 -82 27
c-182 60 -308 183 -374 363 -29 81 -29 100 2 129 18 17 25 33 25 62 0 28 -7
45 -25 62 -30 28 -31 40 -5 122 60 194 244 353 458 397 2 1 17 -12 32 -29z"/>
<path d="M1652 7227 l-22 -23 79 -78 c76 -76 79 -80 74 -117 -7 -46 13 -81 59
-105 43 -22 103 -5 126 37 l17 29 173 0 172 0 0 30 0 30 -169 0 -169 0 -36 36
c-33 33 -40 36 -79 31 -41 -4 -44 -3 -122 75 l-81 79 -22 -24z"/>
<path d="M8738 7550 c-21 -11 -53 -44 -73 -72 l-35 -53 82 -82 c46 -46 79 -83
75 -83 -4 0 -48 27 -97 60 -50 34 -100 60 -114 60 -22 0 -41 -23 -126 -151
-56 -82 -103 -163 -105 -178 -2 -16 -102 -177 -229 -367 l-226 -339 1 -125 c0
-69 4 -144 7 -167 l7 -42 145 56 c80 31 151 61 159 67 8 6 114 161 237 345
130 195 232 338 246 345 12 6 67 76 121 156 84 124 98 149 93 176 -3 26 5 45
42 100 45 66 47 72 47 141 0 77 -13 106 -68 147 -40 30 -140 33 -189 6z m102
-361 c33 -24 41 -36 38 -53 -8 -40 -171 -275 -196 -282 -15 -4 -36 3 -68 24
-40 26 -44 31 -27 36 24 8 193 258 193 286 0 27 10 25 60 -11z m-828 -826 c10
-9 18 -25 18 -35 0 -15 5 -18 20 -13 27 9 70 -19 70 -45 0 -15 7 -18 32 -18
21 1 37 -6 50 -22 23 -28 23 -42 1 -68 -16 -18 -162 -82 -187 -82 -5 0 -31 14
-58 31 l-48 31 0 103 c0 96 2 105 22 119 29 21 57 20 80 -1z"/>
<path d="M393 5985 c-166 -45 -310 -177 -364 -332 -60 -175 -14 -359 125 -499
108 -108 216 -153 366 -154 198 0 366 101 450 274 74 151 75 298 3 446 -103
211 -355 325 -580 265z m113 -11 c-5 -14 -1 -16 23 -11 24 5 32 1 45 -18 25
-38 20 -48 -19 -43 -29 3 -35 1 -35 -14 0 -11 -7 -18 -18 -18 -10 0 -23 -5
-30 -12 -9 -9 -5 -15 18 -24 29 -13 41 -34 19 -34 -5 0 -32 7 -59 16 -44 14
-52 14 -79 1 -22 -11 -31 -12 -31 -4 0 14 -49 39 -61 31 -15 -9 -10 -27 5 -21
14 5 36 -10 36 -25 0 -4 -11 -8 -25 -8 -14 0 -25 -4 -25 -10 0 -5 -8 -10 -17
-11 -12 -1 -9 -4 7 -9 14 -4 37 -5 53 -2 15 2 27 0 27 -5 0 -6 13 -6 35 1 19
6 35 17 35 25 0 18 77 7 101 -14 8 -8 22 -15 30 -15 8 -1 26 -17 41 -37 22
-28 25 -39 17 -55 -7 -13 -7 -23 0 -32 14 -16 -5 -57 -39 -86 -26 -23 -30 -23
-85 -10 -25 6 -44 5 -49 0 -6 -6 -18 -10 -28 -10 -14 0 -18 -8 -18 -37 0 -21
-7 -47 -15 -57 -16 -22 -20 -56 -6 -56 15 0 19 -49 5 -61 -8 -6 -14 -21 -14
-33 0 -12 -6 -31 -14 -41 -12 -17 -16 -17 -47 -5 -32 14 -78 56 -79 73 0 4 -8
17 -19 28 -18 20 -31 61 -31 101 0 11 -6 34 -14 51 -42 96 -43 124 -6 112 12
-4 23 3 34 20 9 14 23 36 32 50 11 16 12 25 5 25 -6 0 -14 -8 -18 -17 -9 -27
-40 -53 -61 -53 -22 0 -34 32 -26 70 l6 25 -21 -25 c-36 -44 -24 2 17 66 74
113 178 189 300 218 81 20 106 20 98 0z m316 -91 c51 -37 109 -110 133 -167
19 -44 19 -46 0 -46 -9 0 -12 6 -9 15 4 8 1 15 -5 15 -7 0 -17 13 -24 28 -17
40 -91 104 -111 96 -11 -4 -16 0 -16 14 0 12 -4 24 -10 27 -5 3 -10 -1 -10 -9
0 -22 -20 -20 -20 2 0 9 -7 26 -15 36 -8 10 -12 23 -9 28 9 13 44 -1 96 -39z
m114 -238 c-21 -16 -32 -13 -21 4 3 6 14 11 23 11 15 -1 15 -2 -2 -15z m61
-43 c3 -23 2 -49 -2 -59 -4 -10 -9 -43 -11 -73 -5 -54 -33 -125 -58 -145 -7
-5 -15 -24 -19 -41 -3 -17 -20 -52 -37 -77 -16 -25 -30 -49 -30 -55 0 -11 -62
-53 -68 -47 -2 2 8 19 22 38 14 18 23 37 19 41 -4 4 -8 26 -9 49 -2 30 -8 46
-23 56 -15 10 -21 24 -21 53 0 22 -5 49 -11 60 -10 18 -8 24 17 42 16 12 31
21 34 21 17 2 50 33 50 48 0 9 11 22 25 27 14 5 25 15 25 22 0 19 46 38 59 25
8 -8 11 2 11 33 0 55 19 42 27 -18z m-367 -515 c14 -2 34 -8 45 -15 74 -41
-171 -67 -298 -31 -53 15 -37 33 23 25 35 -5 50 -3 53 6 3 9 9 8 19 -6 10 -13
21 -17 33 -12 14 5 16 9 7 18 -7 7 -12 14 -12 18 0 5 75 3 130 -3z"/>
</g>
</svg>
